# xmcd CD database file
#
# Track frame offsets:
#	150
#	13989
#	33491
#	46801
#	64526
#	81921
#	97982
#	117983
#	130469
#	145126
#
# Disc length: 2151 seconds
#
# Revision: 0
# Processed by: cddbd v1.4PL0 Copyright (c) Steve Scherf et al.
# Submitted via: CDex 1.51
#
DISCID=8508650a
DTITLE=Arly - Beyond The Mountains
DYEAR=2003
DGENRE=Country
TTITLE0=I'm Bound For Home
TTITLE1=My Mexican Girl
TTITLE2=Amanda
TTITLE3=Ain't Nobody's Crying Man
TTITLE4=Seven Spanish Angels
TTITLE5=Storms Never Last
TTITLE6=Robert and Ramona
TTITLE7=Baby I Don't Care
TTITLE8=Lonesome
TTITLE9=Please Don't Tell
EXTD=YEAR: 2003
EXTT0=
EXTT1=
EXTT2=
EXTT3=
EXTT4=
EXTT5=
EXTT6=
EXTT7=
EXTT8=
EXTT9=
PLAYORDER=
